<?xml version="1.0" encoding="UTF-8" standalone="no" ?>
<!DOCTYPE svg PUBLIC "-//W3C//DTD SVG 1.1//EN" "http://www.w3.org/Graphics/SVG/1.1/DTD/svg11.dtd">
<svg xmlns="http://www.w3.org/2000/svg" xmlns:xlink="http://www.w3.org/1999/xlink" version="1.1" width="1080" height="1080" viewBox="0 0 1080 1080" xml:space="preserve">
<desc>Created with Fabric.js 5.2.4</desc>
<defs>
</defs>
<g transform="matrix(1 0 0 1 540 540)" id="0f1847bc-bcd5-4003-9423-dd94435836f0"  >
<rect style="stroke: none; stroke-width: 1; stroke-dasharray: none; stroke-linecap: butt; stroke-dashoffset: 0; stroke-linejoin: miter; stroke-miterlimit: 4; fill: rgb(255,255,255); fill-rule: nonzero; opacity: 1; visibility: hidden;" vector-effect="non-scaling-stroke"  x="-540" y="-540" rx="0" ry="0" width="1080" height="1080" />
</g>
<g transform="matrix(1 0 0 1 540 540)" id="27d097f8-d17b-44a9-8f41-3736412fedc0"  >
</g>
<g transform="matrix(1 0 0 1 540 539.99)"  >
<path style="stroke: none; stroke-width: 1; stroke-dasharray: none; stroke-linecap: butt; stroke-dashoffset: 0; stroke-linejoin: miter; stroke-miterlimit: 4; fill: rgb(230,50,20); fill-rule: nonzero; opacity: 1;" vector-effect="non-scaling-stroke"  transform=" translate(-359, -233)" d="M 653.694946 1.248756 C 662.354248 1 670.708496 1 679.531372 1 C 680.514954 1.423423 681.044617 1.776058 681.734741 1.909985 C 700.933044 5.635381 712.900757 18.074743 715.947327 37.489254 C 716.100525 38.465729 715.984497 39.485355 716.751709 40.695099 C 717 63.020893 717 85.041786 717 107.531342 C 714.971436 111.604576 715.668579 115.657738 715.391296 119.473763 C 714.517578 131.498688 711.072388 142.934097 707.645935 154.325363 C 694.944153 196.552582 675.820129 235.813599 652.380798 273.086884 C 627.766174 312.228973 598.432861 347.48114 564.7547 379.044434 C 537.418701 404.663788 507.377808 426.699738 473.694855 443.406189 C 459.210205 450.590454 444.202911 456.549194 428.612518 461.001099 C 421.380585 463.066254 413.903503 463.252289 406.28656 464.75531 C 385.312439 465 364.624878 465 343.468658 465 C 341.688751 463.663055 339.933533 463.977081 338.339539 463.815216 C 323.591797 462.317535 311.43692 455.238129 300.262451 446.102264 C 298.080688 444.318573 296.023712 442.362732 293.945587 440.451111 C 288.465729 435.4104 288.079987 435.186798 281.406708 438.659058 C 265.742493 446.809601 249.65744 453.883759 232.837708 459.375427 C 224.233292 462.184753 215.392426 463.146881 206.286072 464.755798 C 185.312439 465 164.624878 465 143.468658 465 C 141.714539 463.647278 139.933746 463.933044 138.370392 463.758484 C 120.630119 461.778168 106.856895 452.285339 95.291878 439.708862 C 77.484138 420.343689 71.272614 396.458099 70.4981 370.748627 C 69.308197 331.250244 79.796478 294.298706 94.993973 258.410065 C 116.471169 207.692001 146.550293 162.241302 180.676727 119.296486 C 182.616364 116.855614 184.814484 114.582733 186.600235 111.141083 C 182.232971 111.565697 178.839218 113.303391 175.257111 114.20211 C 165.213226 116.722 155.10878 118.256126 144.697983 118.599091 C 122.910675 119.316818 101.549759 115.997993 80.110649 113.026352 C 61.409229 110.434174 42.692299 109.286484 24.134924 114.378525 C 18.324617 115.972832 12.776345 118.194183 7.29129 120.633774 C 5.520211 121.421501 3.763505 122.741211 1.338426 121.200897 C 1 118.62944 1 116.258888 1 113.444168 C 3.430897 105.419304 5.226125 97.669983 8.587909 90.348244 C 15.533333 75.221565 23.945215 61.043663 35.899952 49.430012 C 50.576218 35.172493 68.457039 27.227251 88.784042 24.555346 C 108.706497 21.936619 128.590149 22.860035 148.527527 24.227476 C 173.773712 25.95903 199.071075 27.626902 224.366058 26.308561 C 243.65947 25.303013 262.796783 22.533958 281.44754 17.06179 C 291.394623 14.143291 293.796478 16.398829 291.984558 26.537199 C 289.683075 39.414883 283.40332 50.678055 277.09787 61.825867 C 261.019226 90.25222 242.80632 117.394485 226.321884 145.583862 C 207.940491 177.017105 191.635544 209.400452 180.801208 244.298248 C 175.254837 262.1633 171.634735 280.352783 170.249969 299.102478 C 169.203751 313.268311 170.044022 327.094208 173.946106 340.613281 C 179.963226 361.459961 192.571609 375.650879 215.05661 379.244019 C 225.10376 380.849579 234.964249 379.717407 244.797821 377.807251 C 248.882324 377.013855 252.92276 375.967438 256.895264 374.701782 C 260.766235 373.468475 262.570496 370.89151 262.123901 366.762207 C 257.217224 321.392151 266.408752 278.28006 283.470703 236.556717 C 301.277527 193.011871 326.163452 154.059052 360.504883 121.600777 C 382.960449 100.376587 408.156464 83.558258 438.796387 76.464867 C 451.197052 73.594009 463.738159 72.64621 476.464508 74.732903 C 501.217499 78.791573 516.709167 97.033363 517.544983 122.558624 C 518.406372 148.862045 511.317261 173.326614 501.199341 197.103943 C 482.112 241.959625 455.141083 281.873383 423.911469 319.056946 C 409.006622 336.803406 392.991699 353.508118 376.268097 369.542084 C 372.456512 373.196533 372.676025 375.635498 377.332703 378.582092 C 385.974701 384.050476 395.578857 386.777924 405.685547 387.399902 C 426.17511 388.660858 445.835144 384.777985 464.67572 376.814484 C 493.631348 364.575562 517.588989 345.53241 538.121948 322.011536 C 578.375122 275.900696 604.06073 222.595215 615.826904 162.633972 C 620.311584 139.779709 621.588623 116.722672 616.578918 93.673576 C 612.898926 76.742531 605.728943 61.873272 591.623718 51.072594 C 588.293396 48.522491 588.097961 45.596462 590.470093 42.419121 C 603.600525 24.831242 619.598145 10.888828 640.656677 3.578416 C 644.723755 2.166546 649.189331 2.486065 653.694946 1.248756 z" stroke-linecap="round" />
</g>
</svg>